<svg width="32" height="32" viewBox="0 0 32 32" fill="none" xmlns="http://www.w3.org/2000/svg">
<path d="M24.0001 17.3333H17.3334V24C17.3334 24.7333 16.7334 25.3333 16.0001 25.3333C15.2667 25.3333 14.6667 24.7333 14.6667 24V17.3333H8.00008C7.26675 17.3333 6.66675 16.7333 6.66675 16C6.66675 15.2667 7.26675 14.6667 8.00008 14.6667H14.6667V7.99999C14.6667 7.26666 15.2667 6.66666 16.0001 6.66666C16.7334 6.66666 17.3334 7.26666 17.3334 7.99999V14.6667H24.0001C24.7334 14.6667 25.3334 15.2667 25.3334 16C25.3334 16.7333 24.7334 17.3333 24.0001 17.3333Z" fill="black"/>
</svg>
