<svg width="32" height="32" viewBox="0 0 32 32" fill="none" xmlns="http://www.w3.org/2000/svg">
<path d="M8.00008 25.3333C8.00008 26.8 9.20008 28 10.6667 28H21.3334C22.8001 28 24.0001 26.8 24.0001 25.3333V12C24.0001 10.5333 22.8001 9.33333 21.3334 9.33333H10.6667C9.20008 9.33333 8.00008 10.5333 8.00008 12V25.3333ZM24.0001 5.33333H20.6667L19.7201 4.38667C19.4801 4.14667 19.1334 4 18.7867 4H13.2134C12.8667 4 12.5201 4.14667 12.2801 4.38667L11.3334 5.33333H8.00008C7.26675 5.33333 6.66675 5.93333 6.66675 6.66667C6.66675 7.4 7.26675 8 8.00008 8H24.0001C24.7334 8 25.3334 7.4 25.3334 6.66667C25.3334 5.93333 24.7334 5.33333 24.0001 5.33333Z" fill="black"/>
</svg>
