<svg width="32" height="32" viewBox="0 0 32 32" fill="none" xmlns="http://www.w3.org/2000/svg">
<path d="M16 3C8.82183 3 3 8.73837 3 15.816C3 21.4785 6.7245 26.2824 11.8909 27.9773C12.5398 28.0959 12.75 27.6986 12.75 27.3611V24.9752C9.13383 25.7505 8.38092 23.4629 8.38092 23.4629C7.78942 21.9816 6.93683 21.5875 6.93683 21.5875C5.75708 20.7918 7.02675 20.8089 7.02675 20.8089C8.33217 20.8986 9.019 22.13 9.019 22.13C10.1782 24.0887 12.0599 23.5227 12.802 23.1948C12.9179 22.3671 13.2548 21.8011 13.6275 21.4817C10.7404 21.156 7.70492 20.057 7.70492 15.1474C7.70492 13.7473 8.213 12.6045 9.04392 11.7074C8.90958 11.3838 8.46433 10.0798 9.17067 8.31544C9.17067 8.31544 10.2627 7.97154 12.7467 9.62908C13.7835 9.34499 14.895 9.20295 16 9.19761C17.105 9.20295 18.2176 9.34499 19.2565 9.62908C21.7384 7.97154 22.8282 8.31544 22.8282 8.31544C23.5357 10.0808 23.0904 11.3849 22.9561 11.7074C23.7902 12.6045 24.294 13.7484 24.294 15.1474C24.294 20.0698 21.2531 21.1539 18.3584 21.4711C18.8243 21.8684 19.25 22.648 19.25 23.8442V27.3611C19.25 27.7018 19.458 28.1023 20.1178 27.9763C25.2798 26.2792 29 21.4764 29 15.816C29 8.73837 23.1793 3 16 3Z" fill="black"/>
</svg>
