<?xml version="1.0" encoding="UTF-8" standalone="no"?>
<!-- Created with Inkscape (http://www.inkscape.org/) -->

<svg
   width="135.24397mm"
   height="73.696136mm"
   viewBox="0 0 135.24397 73.696136"
   version="1.1"
   id="svg5"
   xml:space="preserve"
   inkscape:version="1.2.1 (9c6d41e, 2022-07-14)"
   sodipodi:docname="portal-logo-design.svg"
   xmlns:inkscape="http://www.inkscape.org/namespaces/inkscape"
   xmlns:sodipodi="http://sodipodi.sourceforge.net/DTD/sodipodi-0.dtd"
   xmlns:xlink="http://www.w3.org/1999/xlink"
   xmlns="http://www.w3.org/2000/svg"
   xmlns:svg="http://www.w3.org/2000/svg"><sodipodi:namedview
     id="namedview7"
     pagecolor="#ffffff"
     bordercolor="#000000"
     borderopacity="0.25"
     inkscape:showpageshadow="2"
     inkscape:pageopacity="0.0"
     inkscape:pagecheckerboard="0"
     inkscape:deskcolor="#d1d1d1"
     inkscape:document-units="mm"
     showgrid="false"
     inkscape:zoom="1.9692959"
     inkscape:cx="361.29664"
     inkscape:cy="270.909"
     inkscape:window-width="1920"
     inkscape:window-height="975"
     inkscape:window-x="1080"
     inkscape:window-y="445"
     inkscape:window-maximized="1"
     inkscape:current-layer="g34637"><inkscape:grid
       type="xygrid"
       id="grid21516"
       originx="207.84639"
       originy="-23.587215" /></sodipodi:namedview><defs
     id="defs2"><linearGradient
       inkscape:collect="always"
       id="linearGradient31535"><stop
         style="stop-color:#f7f7f7;stop-opacity:1;"
         offset="0"
         id="stop31531" /><stop
         style="stop-color:#f7f7f7;stop-opacity:0;"
         offset="1"
         id="stop31533" /></linearGradient><linearGradient
       inkscape:collect="always"
       id="linearGradient31527"><stop
         style="stop-color:#fdfdfd;stop-opacity:1;"
         offset="0"
         id="stop31523" /><stop
         style="stop-color:#fdfdfd;stop-opacity:0;"
         offset="1"
         id="stop31525" /></linearGradient><linearGradient
       inkscape:collect="always"
       id="linearGradient19905"><stop
         style="stop-color:#6d3b14;stop-opacity:1;"
         offset="0"
         id="stop19901" /><stop
         style="stop-color:#000000;stop-opacity:1;"
         offset="1"
         id="stop19903" /></linearGradient><linearGradient
       inkscape:collect="always"
       id="linearGradient10774"><stop
         style="stop-color:#073981;stop-opacity:1;"
         offset="0"
         id="stop10770" /><stop
         style="stop-color:#000000;stop-opacity:1;"
         offset="1"
         id="stop10772" /></linearGradient><linearGradient
       inkscape:collect="always"
       xlink:href="#linearGradient19905"
       id="linearGradient19909"
       x1="96.839996"
       y1="102.60001"
       x2="125.64"
       y2="102.60001"
       gradientUnits="userSpaceOnUse"
       gradientTransform="translate(-192.96,-9.72)" /><linearGradient
       inkscape:collect="always"
       xlink:href="#linearGradient10774"
       id="linearGradient19911"
       x1="18.359999"
       y1="70.200005"
       x2="47.16"
       y2="70.200005"
       gradientUnits="userSpaceOnUse" /><linearGradient
       inkscape:collect="always"
       xlink:href="#linearGradient31527"
       id="linearGradient31529"
       x1="7.4975009"
       y1="68.871567"
       x2="32.782429"
       y2="79.757797"
       gradientUnits="userSpaceOnUse" /><linearGradient
       inkscape:collect="always"
       xlink:href="#linearGradient31535"
       id="linearGradient31537"
       x1="134.81451"
       y1="133.93494"
       x2="110.30972"
       y2="157.28799"
       gradientUnits="userSpaceOnUse"
       gradientTransform="rotate(15.352632,338.29603,-61.035307)" /></defs><g
     inkscape:label="Layer 1"
     inkscape:groupmode="layer"
     id="layer1"
     transform="translate(-3.084764,-3.6074974)"><g
       id="g34637"
       transform="translate(6.4811095,-37.590433)"><g
         id="g29352"
         transform="matrix(0.67794067,0.17338733,-0.18613313,0.63151748,21.399024,-37.633844)"><g
           id="g31621"
           transform="matrix(0.98267284,0.2384374,-0.21106814,0.96641876,34.45365,-36.72498)"><path
             style="fill:#ffffff;fill-opacity:1;stroke-width:0.264583"
             d="m 148.61436,132.11313 39.47216,-18.47983 -52.54183,11.74696 z"
             id="path23124"
             sodipodi:nodetypes="cccc" /><path
             style="fill:#cccccc;fill-opacity:1;stroke-width:0.264583"
             d="m 148.67254,131.96992 0.0738,12.81683 39.33535,-31.15179 z"
             id="path23128"
             sodipodi:nodetypes="cccc" /><path
             style="fill:#808080;fill-opacity:1;stroke-width:0.264583"
             d="m 153.10081,135.80635 6.61073,0.38105 -10.96085,8.58513 c 1.74631,-3.22355 3.02298,-6.31116 4.35012,-8.96618 z"
             id="path23856"
             sodipodi:nodetypes="cccc" /><path
             style="fill:#ffffff;fill-opacity:1;stroke-width:0.264583"
             d="m 153.09983,135.8065 18.88151,13.99689 16.10606,-36.17263 z"
             id="path23126"
             sodipodi:nodetypes="cccc" /></g></g><g
         id="g19915"
         transform="matrix(0.70633891,0,0,0.6297423,8.7139184,29.198725)"><ellipse
           style="fill:#fedd10;fill-opacity:1;stroke-width:0.264583"
           id="ellipse10780"
           cx="81.720001"
           cy="92.880013"
           rx="18.360001"
           ry="43.200001" /><ellipse
           style="fill:url(#linearGradient19909);fill-opacity:1;stroke-width:0.20628"
           id="ellipse10782"
           cx="-81.720001"
           cy="92.880013"
           rx="14.400001"
           ry="33.48"
           transform="scale(-1,1)" /></g><g
         id="g19919"><g
           id="g31490"
           transform="matrix(0.64760669,0,0,0.67134429,11.544404,23.071632)"><ellipse
             style="fill:#0892ff;fill-opacity:1;stroke-width:0.264583"
             id="path1514"
             cx="32.759998"
             cy="70.200005"
             rx="18.360001"
             ry="43.200001" /><ellipse
             style="fill:url(#linearGradient19911);fill-opacity:1;stroke-width:0.20628"
             id="ellipse7916"
             cx="32.759998"
             cy="70.200005"
             rx="14.400001"
             ry="33.48" /></g></g><path
         style="color:#000000;fill:url(#linearGradient31529);stroke-linecap:round;-inkscape-stroke:none;paint-order:stroke fill markers"
         d="m -2.2363281,67.203125 a 1,1 0 0 0 -0.7441407,0.175781 1,1 0 0 0 -0.2265625,1.396485 c 0,0 4.5566,6.353779 11.4980469,10.943359 3.4707234,2.29479 7.5617004,4.16839 12.0253904,4.541016 4.46369,0.372626 9.283445,-0.801542 14,-4.460938 A 1,1 0 0 0 34.494141,78.394531 1,1 0 0 0 33.089844,78.21875 C 28.724711,81.60549 24.492222,82.600197 20.484375,82.265625 16.476528,81.931053 12.678346,80.220037 9.3945313,78.048828 2.8269022,73.70641 -1.5839844,67.605469 -1.5839844,67.605469 a 1,1 0 0 0 -0.6523437,-0.402344 z"
         id="path29408" /><path
         style="color:#000000;fill:url(#linearGradient31537);stroke-linecap:round;-inkscape-stroke:none;paint-order:stroke fill markers"
         d="m 83.535156,73.175781 c -7.089016,-0.141338 -12.005201,1.581631 -15.292969,3.650391 -4.38369,2.758346 -5.892578,6.197265 -5.892578,6.197265 A 1,1 0 0 0 62.875,84.337891 1,1 0 0 0 64.1875,83.8125 c 0,0 1.178771,-2.815526 5.119141,-5.294922 3.940369,-2.479395 10.62315,-4.555943 21.707031,-2.554687 a 1,1 0 0 0 1.162109,-0.806641 1,1 0 0 0 -0.80664,-1.162109 c -2.86594,-0.517461 -5.470979,-0.771247 -7.833985,-0.81836 z"
         id="path29788" /></g></g></svg>
